<?xml version="1.0" encoding="UTF-8"?>
<svg id="Camada_1" data-name="Camada 1" xmlns="http://www.w3.org/2000/svg" viewBox="0 0 48 48">
  <path fill="#eae0d5" d="M32.9,10.7c-1.28-.85-2.63-1.5-4.02-1.94-.22-.07-.44-.11-.65-.11-1.13,0-2.08.91-2.08,2.04,0,.17.02.34.06.51,1.07,4.24.41,8.89-2.21,12.8-2.62,3.91-6.66,6.3-10.98,6.93-1.61.24-2.29,2.17-1.23,3.41.97,1.15,2.12,2.18,3.45,3.05,2.65,1.73,5.68,2.57,8.7,2.57,4.9,0,9.76-2.22,12.85-6.35,5.54-7.39,3.69-17.84-3.89-22.91ZM35.19,32.41c-2.6,3.47-6.81,5.55-11.25,5.55-2.73,0-5.36-.78-7.6-2.25-1.14-.74-2.16-1.64-3.03-2.66-.06-.08-.01-.14,0-.14,2.51-.37,4.9-1.27,7-2.59,2.11-1.34,3.94-3.1,5.35-5.21,2.82-4.22,3.73-9.46,2.49-14.41,0-.01.04-.05.08-.05,1.24.4,2.46.98,3.56,1.71,3.22,2.16,5.36,5.46,6.01,9.29.65,3.82-.27,7.65-2.61,10.76Z"/>
</svg>

