<?xml version="1.0" encoding="UTF-8"?>
<svg id="Camada_1" data-name="Camada 1" xmlns="http://www.w3.org/2000/svg" viewBox="0 0 48 48">
  <path d="M48,24C48,10.75,37.25,0,24,0S0,10.75,0,24s10.75,24,24,24c1.67,0,3.3-.17,4.87-.49.65.31,1.37.49,2.13.49h12c2.76,0,5-2.24,5-5v-8c0-1.27-.49-2.41-1.27-3.3.82-2.42,1.27-5.01,1.27-7.7ZM17.11,3.11c-2.96,2.87-5.24,7.53-6.36,13.13-2.53-.74-4.62-1.66-6.12-2.67,2.65-4.9,7.11-8.68,12.47-10.46ZM2,24c0-3.06.63-5.98,1.76-8.63,1.73,1.13,4,2.11,6.64,2.87-.27,1.85-.41,3.77-.41,5.76s.14,3.91.41,5.76c-2.65.76-4.91,1.74-6.64,2.87-1.13-2.65-1.76-5.57-1.76-8.63ZM4.63,34.43c1.5-1.01,3.59-1.93,6.12-2.67,1.11,5.6,3.4,10.26,6.36,13.13-5.37-1.77-9.82-5.56-12.47-10.46ZM23,45.91c-4.71-.75-8.74-6.73-10.3-14.67,3-.71,6.49-1.16,10.3-1.22v15.89ZM23,28.01c-3.85.07-7.46.51-10.64,1.24-.24-1.69-.36-3.45-.36-5.25s.13-3.56.36-5.25c3.17.73,6.79,1.18,10.64,1.24v8.02ZM23,17.98c-3.81-.07-7.3-.52-10.3-1.22,1.57-7.93,5.6-13.92,10.3-14.67v15.89ZM46,35v8c0,1.66-1.34,3-3,3h-12c-1.66,0-3-1.34-3-3v-8c0-1.66,1.34-3,3-3h12c1.66,0,3,1.34,3,3ZM46,24c0,2.24-.34,4.4-.97,6.44-.62-.28-1.31-.44-2.03-.44h-4.65c-.25-.08-.49-.17-.76-.24.27-1.85.41-3.77.41-5.76s-.14-3.91-.41-5.76c2.65-.76,4.91-1.74,6.64-2.87,1.13,2.65,1.76,5.57,1.76,8.63ZM43.37,13.57c-1.5,1.01-3.59,1.93-6.12,2.67-1.11-5.6-3.4-10.26-6.36-13.13,5.37,1.77,9.82,5.56,12.47,10.46ZM25,2.09c4.71.75,8.74,6.73,10.3,14.67-3,.71-6.49,1.16-10.3,1.22V2.09ZM25,19.99c3.85-.07,7.46-.51,10.64-1.24.24,1.69.36,3.45.36,5.25s-.13,3.56-.36,5.25c-3.17-.73-6.79-1.18-10.64-1.24v-8.02ZM25,30.02c1.52.03,2.97.13,4.38.27-1.96.68-3.38,2.52-3.38,4.71v8c0,.88.25,1.7.65,2.42-.54.23-1.09.4-1.65.49v-15.89Z"/>
  <polygon points="35.5 42.75 35.5 41.04 32.73 41.04 32.73 39.61 35.31 39.61 35.31 38.13 32.73 38.13 32.73 36.96 35.43 36.96 35.43 35.25 30.6 35.25 30.6 42.75 35.5 42.75"/>
  <polygon points="41.17 35.25 41.17 39.5 40.8 39.5 38.78 35.25 36.32 35.25 36.32 42.75 38.28 42.75 38.28 38.5 38.65 38.5 40.6 42.75 43.13 42.75 43.13 35.25 41.17 35.25"/>
</svg>