<?xml version="1.0" encoding="UTF-8"?>
<svg id="Camada_1" data-name="Camada 1" xmlns="http://www.w3.org/2000/svg" viewBox="0 0 48 48">
  <path d="M24,15c4.96,0,9,4.04,9,9s-4.04,9-9,9-9-4.04-9-9,4.04-9,9-9M24,13c-6.08,0-11,4.92-11,11s4.92,11,11,11,11-4.92,11-11-4.92-11-11-11h0ZM25,10v-3c0-.55-.45-1-1-1s-1,.45-1,1v3c0,.55.45,1,1,1s1-.45,1-1ZM34.61,14.81l2.12-2.12c.39-.39.39-1.02,0-1.41-.39-.39-1.02-.39-1.41,0l-2.12,2.12c-.39.39-.39,1.02,0,1.41.2.2.45.29.71.29s.51-.1.71-.29ZM42,24c0-.55-.45-1-1-1h-3c-.55,0-1,.45-1,1s.45,1,1,1h3c.55,0,1-.45,1-1ZM36.73,36.73c.39-.39.39-1.02,0-1.41l-2.12-2.12c-.39-.39-1.02-.39-1.41,0-.39.39-.39,1.02,0,1.41l2.12,2.12c.2.2.45.29.71.29s.51-.1.71-.29ZM24,38v3M25,41v-3c0-.55-.45-1-1-1s-1,.45-1,1v3c0,.55.45,1,1,1s1-.45,1-1ZM12.69,36.73l2.12-2.12c.39-.39.39-1.02,0-1.41s-1.02-.39-1.41,0l-2.12,2.12c-.39.39-.39,1.02,0,1.41.2.2.45.29.71.29s.51-.1.71-.29ZM11,24c0-.55-.45-1-1-1h-3c-.55,0-1,.45-1,1s.45,1,1,1h3c.55,0,1-.45,1-1ZM14.81,14.81c.39-.39.39-1.02,0-1.41l-2.12-2.12c-.39-.39-1.02-.39-1.41,0s-.39,1.02,0,1.41l2.12,2.12c.2.2.45.29.71.29s.51-.1.71-.29Z"/>
</svg>