<svg width="36" height="36" viewBox="0 0 36 36" fill="none" xmlns="http://www.w3.org/2000/svg">
<path d="M13.8135 34C13.7441 34 13.6649 34 13.5955 33.9799C6.18288 32.2836 1 25.7089 1 18C1 13.4731 2.87297 9.2472 5.95496 6.22587L4.05225 4.29865C3.67568 3.91722 3.55676 3.33503 3.76486 2.83315C3.97297 2.33127 4.44865 2.00003 4.99369 2.00003H12.8523C13.4072 2.00003 13.873 2.40153 13.9523 2.96364C14.0315 3.52575 13.7045 4.04771 13.1595 4.20831C7.16396 5.99501 2.98198 11.6663 2.98198 18C2.98198 24.7654 7.52072 30.527 14.0315 32.0226C14.5667 32.1431 14.9036 32.6851 14.7847 33.2271C14.6856 33.6889 14.2694 34.0101 13.8234 34.0101L13.8135 34ZM21.1865 2.00003C21.2559 2.00003 21.3351 2.00003 21.4045 2.0201C28.8171 3.71646 34 10.2811 34 18C34 22.527 32.127 26.7528 29.045 29.7742L30.9477 31.7014C31.3243 32.0828 31.4432 32.665 31.2351 33.1669C31.027 33.6688 30.5514 34 30.0063 34H22.1477C21.5928 34 21.127 33.5985 21.0477 33.0364C20.9685 32.4743 21.2955 31.9523 21.8405 31.7917C27.836 30.005 32.018 24.3338 32.018 18C32.018 11.2347 27.4793 5.47305 20.9685 3.97744C20.4333 3.85699 20.0964 3.31496 20.2153 2.77293C20.3144 2.31119 20.7306 1.98999 21.1766 1.98999L21.1865 2.00003ZM18.7586 27.6161L26.3496 14.2961C26.9045 13.3225 26.5775 12.0778 25.6162 11.5157L18.9865 7.64118C18.0252 7.07907 16.7964 7.41032 16.2414 8.38397L8.65045 21.7039C8.0955 22.6776 8.42252 23.9222 9.38378 24.4843L16.0135 28.3589C16.9748 28.921 18.2036 28.5897 18.7586 27.6161Z" fill="#F8F0E3"/>
</svg>
