<svg width="100" height="89" viewBox="0 0 100 89" fill="none" xmlns="http://www.w3.org/2000/svg">
<path d="M49.9574 22.7391C76.5143 22.7391 98.9148 15.2097 98.9148 11.8695C98.9148 8.52938 76.5143 1 49.9574 1C23.4004 1 1 8.52938 1 11.8695C1 15.2097 23.3935 22.7391 49.9574 22.7391ZM49.9574 22.7391C76.5213 22.7391 98.9148 30.2683 98.9148 33.6085C98.9148 36.9487 76.5143 44.478 49.9574 44.478C23.3935 44.478 1 36.9487 1 33.6085C1 30.2683 23.3935 22.7391 49.9574 22.7391ZM49.9574 66.2253C76.5143 66.2253 98.9148 58.6959 98.9148 55.3557C98.9148 52.0156 76.5213 44.4862 49.9574 44.4862C23.3935 44.4862 1 52.0076 1 55.3557C1 58.7039 23.3935 66.2253 49.9574 66.2253ZM49.9574 66.2253C76.5213 66.2253 98.9148 73.7545 98.9148 77.0947C98.9148 80.4348 76.5143 87.9642 49.9574 87.9642C23.3935 87.9642 1 80.4348 1 77.0947C1 73.7545 23.3935 66.2253 49.9574 66.2253Z" stroke="black" stroke-width="2" stroke-miterlimit="10"/>
</svg>
