<svg width="40" height="40" viewBox="0 0 40 40" fill="none" xmlns="http://www.w3.org/2000/svg">
<path d="M38.4559 11.9112C37.9637 10.7558 37.3536 9.64122 36.6436 8.5983C35.9406 7.56601 35.1331 6.59481 34.2433 5.71214C33.3544 4.82946 32.3752 4.02824 31.3349 3.3306C30.284 2.62588 29.1613 2.0212 27.9962 1.5325C25.5738 0.515261 23.0001 0 20.3466 0C17.6932 0 15.1185 0.515261 12.6953 1.5325C11.531 2.0212 10.4075 2.62588 9.35656 3.3306C8.31537 4.02824 7.33704 4.82946 6.44813 5.71214C5.55833 6.59481 4.75088 7.56601 4.0479 8.5983C3.33783 9.64122 2.7287 10.755 2.23555 11.9112C1.21118 14.3158 0.691472 16.869 0.691472 19.502C0.691472 21.3072 0.94026 23.0955 1.42987 24.8157C1.90442 26.4837 2.60475 28.0844 3.51048 29.5708L3.52642 29.5974L0 40L10.821 36.5614L10.8457 36.5747C12.2694 37.3564 13.7878 37.9602 15.3593 38.3675C16.9787 38.788 18.6565 39.0005 20.3466 39.0005C23.0001 39.0005 25.5738 38.4852 27.9971 37.468C29.1613 36.9793 30.2849 36.3746 31.3358 35.6699C32.3761 34.9722 33.3553 34.171 34.2442 33.2883C35.1331 32.4057 35.9415 31.4353 36.6445 30.4022C37.3545 29.3601 37.9637 28.2455 38.4568 27.0901C39.4812 24.6865 40.0009 22.1323 40.0009 19.5002C40.0009 16.8682 39.4812 14.314 38.4568 11.9094L38.4559 11.9112ZM20.3466 36.0187C17.0876 36.0187 13.9304 35.0802 11.2141 33.3051L4.74822 35.36L6.85009 29.1592C4.78895 26.3305 3.69995 22.992 3.69995 19.502C3.69995 10.3938 11.168 2.98356 20.3475 2.98356C29.527 2.98356 36.9933 10.3938 36.9933 19.502C36.9933 28.6103 29.5261 36.0187 20.3475 36.0187H20.3466ZM29.8493 25.485C29.4323 28.1339 26.3831 29.4814 23.9722 29.0538C22.7044 28.8289 21.5419 28.2446 20.351 27.7798C15.4364 25.8595 12.3349 20.8583 12.0932 20.5378C11.0228 19.1195 10.1773 17.4082 10.1233 15.6021C10.1206 15.5198 10.1206 15.4366 10.1224 15.3542C10.1286 15.0594 10.1578 14.7646 10.2118 14.4742C10.3907 13.5048 10.8369 12.5619 11.5585 11.8776C11.9108 11.5438 12.3261 11.2791 12.782 11.1109C13.2522 10.9382 13.8888 10.7744 14.3792 10.9303C14.7617 11.0515 14.9716 11.4747 15.115 11.8174C15.5187 12.7788 16.4855 15.1391 16.6059 15.3781C17.0504 16.2652 16.0198 17.2825 15.4373 17.8588C15.1982 18.0979 14.945 18.3573 15.2257 18.8371C16.7458 21.5011 19.2249 23.5568 21.8039 24.5386C22.2873 24.7786 22.5689 24.7396 22.8504 24.4182C23.2852 23.926 23.7119 23.424 24.1121 22.9052C24.4946 22.4085 24.8053 22.0597 25.4702 22.2988C25.9129 22.4581 28.2901 23.6197 28.7744 23.8587C29.2561 24.0986 29.5783 24.2181 29.7005 24.4191C29.8953 24.7378 29.9068 25.1256 29.8502 25.485H29.8493Z" fill="black"/>
</svg>
