<svg width="100" height="89" viewBox="0 0 100 89" fill="none" xmlns="http://www.w3.org/2000/svg">
<path d="M49.9574 22.7391C76.5143 22.7391 98.9148 15.2097 98.9148 11.8695C98.9148 8.52938 76.5143 1 49.9574 1C23.4004 1 1 8.52938 1 11.8695C1 15.2097 23.3935 22.7391 49.9574 22.7391Z" stroke="black" stroke-width="2" stroke-miterlimit="10"/>
<path d="M49.9574 44.4781C76.5143 44.4781 98.9148 36.9487 98.9148 33.6086C98.9148 30.2684 76.5213 22.739 49.9574 22.739C23.3935 22.739 1 30.2684 1 33.6086C1 36.9487 23.3935 44.4781 49.9574 44.4781Z" stroke="black" stroke-width="2" stroke-miterlimit="10"/>
<path d="M49.9574 66.2172C76.5143 66.2172 98.9148 58.6879 98.9148 55.3477C98.9148 52.0075 76.5213 44.4781 49.9574 44.4781C23.3935 44.4781 1 51.9995 1 55.3477C1 58.6959 23.3935 66.2172 49.9574 66.2172Z" stroke="black" stroke-width="2" stroke-miterlimit="10"/>
<path d="M49.9574 87.9564C76.5143 87.9564 98.9148 80.427 98.9148 77.0868C98.9148 73.7467 76.5213 66.2173 49.9574 66.2173C23.3935 66.2173 1 73.7467 1 77.0868C1 80.427 23.3935 87.9564 49.9574 87.9564Z" stroke="black" stroke-width="2" stroke-miterlimit="10"/>
</svg>
