<svg width="185" height="148" viewBox="0 0 185 148" fill="none" xmlns="http://www.w3.org/2000/svg">
<path d="M165.005 7.73397C175.859 7.73397 185 5.054 185 3.86698C185 2.67997 175.847 0 165.005 0C154.163 0 145.009 2.67997 145.009 3.86698C145.009 5.054 154.163 7.73397 165.005 7.73397Z" fill="#D86907"/>
<path d="M146.748 42.8884C167.502 42.8884 185 37.7822 185 35.5059C185 33.2297 167.502 28.1235 146.748 28.1235C125.994 28.1235 108.496 33.2297 108.496 35.5059C108.496 37.7822 125.994 42.8884 146.748 42.8884Z" fill="#D86907"/>
<path d="M128.839 78.0428C159.31 78.0428 185 70.3677 185 66.9691C185 63.5705 159.31 55.8955 128.839 55.8955C98.3682 55.8955 72.6786 63.5705 72.6786 66.9691C72.6786 70.3677 98.3682 78.0428 128.839 78.0428Z" fill="#D86907"/>
<path d="M110.583 112.846C150.953 112.846 185 102.866 185 98.4323C185 93.9984 150.953 84.019 110.583 84.019C70.2122 84.019 36.1654 93.9984 36.1654 98.4323C36.1654 102.866 70.2122 112.846 110.583 112.846Z" fill="#D86907"/>
<path d="M92.5 148C142.676 148 185 135.46 185 129.895C185 124.331 142.688 111.791 92.5 111.791C42.3121 111.791 0 124.331 0 129.895C0 135.46 42.3121 148 92.5 148Z" fill="#D86907"/>
</svg>
